<svg width="960" height="114" fill="none" xmlns="http://www.w3.org/2000/svg"><path fill-rule="evenodd" clip-rule="evenodd" d="M916.263 13.743c-1.212 2.75-1.818 5.72-1.818 8.914 0 3.274.606 6.296 1.818 9.066 1.211 2.769 2.857 5.174 4.937 7.215 2.08 2.042 4.503 3.639 7.269 4.79 2.767 1.153 5.705 1.73 8.814 1.73 3.069 0 5.987-.577 8.754-1.73 2.766-1.151 5.179-2.748 7.239-4.79 2.059-2.041 3.695-4.446 4.907-7.216 1.211-2.769 1.817-5.79 1.817-9.065 0-3.194-.606-6.165-1.817-8.914-1.212-2.749-2.848-5.134-4.907-7.155-2.06-2.021-4.473-3.608-7.239-4.76C943.27.676 940.352.1 937.283.1c-3.109 0-6.047.576-8.814 1.728-2.766 1.152-5.189 2.739-7.269 4.76s-3.726 4.406-4.937 7.155zm2.284 8.914c0 2.79.474 5.367 1.423 7.732.95 2.365 2.262 4.416 3.938 6.155 1.676 1.738 3.655 3.102 5.937 4.093 2.281.99 4.755 1.485 7.42 1.485 2.626 0 5.069-.495 7.33-1.485a18.329 18.329 0 0 0 5.907-4.093c1.676-1.739 2.988-3.79 3.937-6.155.949-2.365 1.424-4.942 1.424-7.732 0-2.708-.475-5.235-1.424-7.58-.949-2.344-2.261-4.375-3.937-6.094-1.676-1.718-3.645-3.072-5.907-4.062-2.261-.99-4.704-1.486-7.33-1.486-2.665 0-5.139.495-7.42 1.486-2.282.99-4.261 2.344-5.937 4.062-1.676 1.719-2.988 3.75-3.938 6.095-.949 2.344-1.423 4.87-1.423 7.58zM938.663 9.5h-10.237v26.499h4.119v-11.4h4.362l7.208 11.4h4.423l-7.573-11.704c1.979-.202 3.635-.859 4.968-1.97 1.333-1.112 1.999-2.86 1.999-5.245 0-2.547-.757-4.447-2.272-5.7-1.514-1.254-3.846-1.88-6.997-1.88zm-1.796 11.767h-4.301V12.84h5.452c.687 0 1.384.05 2.09.151.707.101 1.333.293 1.878.576.545.283.99.687 1.333 1.213.343.525.515 1.233.515 2.122 0 1.051-.192 1.87-.576 2.456a3.467 3.467 0 0 1-1.544 1.304c-.646.283-1.394.455-2.242.515a36.48 36.48 0 0 1-2.605.091z" fill="#FBFBF8"/><path d="M73.261 38.145h30.772C101.679 15.875 81.255 0 54.754 0 24.53 0 0 20.59 0 57.217 0 92.327 22.23 114 54.973 114c29.349 0 50.374-17.772 50.374-48.114V50.498H55.63v21.456H76c-.274 9.645-7.173 15.822-20.807 15.822-15.769 0-23.873-11.487-23.873-30.993 0-19.235 8.761-30.559 24.092-30.559 9.528 0 15.989 4.335 17.85 11.92zM224.963 57c0-37.06-24.092-57-54.536-57-30.662 0-54.535 19.94-54.535 57 0 36.844 23.873 57 54.535 57 30.444 0 54.536-19.94 54.536-57zm-31.32 0c0 19.94-8.104 30.776-23.216 30.776-15.112 0-23.216-10.837-23.216-30.776 0-19.94 8.104-30.776 23.216-30.776 15.112 0 23.216 10.837 23.216 30.776zM344.468 57c0-37.06-24.092-57-54.535-57-30.662 0-54.535 19.94-54.535 57 0 36.844 23.873 57 54.535 57 30.443 0 54.535-19.94 54.535-57zm-31.319 0c0 19.94-8.104 30.776-23.216 30.776-15.112 0-23.216-10.837-23.216-30.776 0-19.94 8.104-30.776 23.216-30.776 15.112 0 23.216 10.837 23.216 30.776zM398.488 112.483c34.167 0 55.849-20.806 55.849-55.483 0-34.677-21.682-55.483-56.287-55.483h-42.708v110.966h43.146zm-12.703-25.574V27.09h10.732c17.521 0 27.158 6.719 27.158 29.909 0 23.19-9.637 29.909-26.282 29.909h-11.608zM543.169 44.948h-77.094v24.574h77.094V44.948zM587.279 1.517h-30.443v110.966h30.443V1.517zM644.852 112.483c34.166 0 55.849-20.806 55.849-55.483 0-34.677-21.683-55.483-56.287-55.483h-42.709v110.966h43.147zm-12.703-25.574V27.09h10.731c17.522 0 27.158 6.719 27.158 29.909 0 23.19-9.636 29.909-26.282 29.909h-11.607zM711.232 112.483h80.598V88.209h-50.155V69.137h46.213V44.863h-46.213V25.791h50.374V1.517h-80.817v110.966zM832.418 112.483l6.461-21.24h37.014l6.461 21.24h32.853L878.193 1.517H836.58l-37.014 110.966h32.852zm13.36-43.78 11.17-36.627h.876l11.17 36.627h-23.216z" fill="#FBFBF8"/></svg>