<svg width="51" height="52" fill="none" xmlns="http://www.w3.org/2000/svg"><g opacity=".9" fill="#D5D5D2"><path d="M8.722 13.564h3.337c-.256-2.48-2.47-4.248-5.343-4.248-3.277 0-5.937 2.293-5.937 6.372 0 3.91 2.41 6.325 5.96 6.325 3.182 0 5.462-1.98 5.462-5.36V14.94h-5.39v2.39h2.208c-.03 1.074-.778 1.762-2.256 1.762-1.71 0-2.588-1.28-2.588-3.452 0-2.142.95-3.404 2.612-3.404 1.033 0 1.733.483 1.935 1.328zM22.388 14.322h-8.359v2.737h8.359v-2.737z"/><path d="M8.722 13.564h3.337c-.256-2.48-2.47-4.248-5.343-4.248-3.277 0-5.937 2.293-5.937 6.372 0 3.91 2.41 6.325 5.96 6.325 3.182 0 5.462-1.98 5.462-5.36V14.94h-5.39v2.39h2.208c-.03 1.074-.778 1.762-2.256 1.762-1.71 0-2.588-1.28-2.588-3.452 0-2.142.95-3.404 2.612-3.404 1.033 0 1.733.483 1.935 1.328zM22.388 14.322h-8.359v2.737h8.359v-2.737z"/><path d="M13.294 8.863v3.43c-2.412-.262-4.132-2.539-4.132-5.493 0-3.37 2.23-6.105 6.198-6.105 3.803 0 6.15 2.479 6.15 6.13 0 3.271-1.925 5.615-5.211 5.615h-1.667V6.897h2.324v2.271c1.045-.03 1.714-.8 1.714-2.32 0-1.758-1.245-2.661-3.357-2.661-2.084 0-3.31.977-3.31 2.686 0 1.062.47 1.782 1.291 1.99zM14.03 22.915V14.32h2.663v8.595H14.03z"/><path d="M13.294 8.863v3.43c-2.412-.262-4.132-2.539-4.132-5.493 0-3.37 2.23-6.105 6.198-6.105 3.803 0 6.15 2.479 6.15 6.13 0 3.271-1.925 5.615-5.211 5.615h-1.667V6.897h2.324v2.271c1.045-.03 1.714-.8 1.714-2.32 0-1.758-1.245-2.661-3.357-2.661-2.084 0-3.31.977-3.31 2.686 0 1.062.47 1.782 1.291 1.99zM14.03 22.915V14.32h2.663v8.595H14.03zM42.497 13.564h-3.336c.255-2.48 2.47-4.248 5.343-4.248 3.277 0 5.936 2.293 5.936 6.372 0 3.91-2.41 6.325-5.96 6.325-3.182 0-5.461-1.98-5.461-5.36V14.94h5.39v2.39H42.2c.03 1.074.777 1.762 2.255 1.762 1.71 0 2.589-1.28 2.589-3.452 0-2.142-.95-3.404-2.612-3.404-1.033 0-1.734.483-1.936 1.328zM28.832 14.322h8.359v2.737h-8.359v-2.737z"/><path d="M42.497 13.564h-3.336c.255-2.48 2.47-4.248 5.343-4.248 3.277 0 5.936 2.293 5.936 6.372 0 3.91-2.41 6.325-5.96 6.325-3.182 0-5.461-1.98-5.461-5.36V14.94h5.39v2.39H42.2c.03 1.074.777 1.762 2.255 1.762 1.71 0 2.589-1.28 2.589-3.452 0-2.142-.95-3.404-2.612-3.404-1.033 0-1.734.483-1.936 1.328zM28.832 14.322h8.359v2.737h-8.359v-2.737z"/><path d="M37.926 8.863v3.43c2.412-.262 4.131-2.539 4.131-5.493 0-3.37-2.23-6.105-6.197-6.105-3.803 0-6.15 2.479-6.15 6.13 0 3.271 1.925 5.615 5.211 5.615h1.667V6.897h-2.324v2.271c-1.045-.03-1.714-.8-1.714-2.32 0-1.758 1.244-2.661 3.357-2.661 2.083 0 3.31.977 3.31 2.686 0 1.062-.47 1.782-1.291 1.99zM37.189 22.915V14.32h-2.662v8.595h2.662z"/><path d="M37.926 8.863v3.43c2.412-.262 4.131-2.539 4.131-5.493 0-3.37-2.23-6.105-6.197-6.105-3.803 0-6.15 2.479-6.15 6.13 0 3.271 1.925 5.615 5.211 5.615h1.667V6.897h-2.324v2.271c-1.045-.03-1.714-.8-1.714-2.32 0-1.758 1.244-2.661 3.357-2.661 2.083 0 3.31.977 3.31 2.686 0 1.062-.47 1.782-1.291 1.99zM37.189 22.915V14.32h-2.662v8.595h2.662zM13.294 43.638v-3.43c-2.412.262-4.132 2.538-4.132 5.493 0 3.37 2.23 6.104 6.198 6.104 3.803 0 6.15-2.478 6.15-6.129 0-3.271-1.925-5.615-5.211-5.615h-1.667v5.542h2.324v-2.27c1.045.03 1.714.8 1.714 2.32 0 1.757-1.245 2.66-3.357 2.66-2.084 0-3.31-.976-3.31-2.685 0-1.062.47-1.783 1.291-1.99zM14.03 29.586v8.595h2.663v-8.595H14.03z"/><path d="M13.294 43.638v-3.43c-2.412.262-4.132 2.538-4.132 5.493 0 3.37 2.23 6.104 6.198 6.104 3.803 0 6.15-2.478 6.15-6.129 0-3.271-1.925-5.615-5.211-5.615h-1.667v5.542h2.324v-2.27c1.045.03 1.714.8 1.714 2.32 0 1.757-1.245 2.66-3.357 2.66-2.084 0-3.31-.976-3.31-2.685 0-1.062.47-1.783 1.291-1.99zM14.03 29.586v8.595h2.663v-8.595H14.03z"/><path d="M8.722 38.937h3.337c-.256 2.48-2.47 4.248-5.343 4.248-3.277 0-5.937-2.293-5.937-6.373 0-3.91 2.41-6.324 5.96-6.324 3.182 0 5.462 1.98 5.462 5.359v1.714h-5.39v-2.39h2.208c-.03-1.074-.778-1.762-2.256-1.762-1.71 0-2.588 1.28-2.588 3.452 0 2.142.95 3.403 2.612 3.403 1.033 0 1.733-.483 1.935-1.327zM22.388 38.179h-8.359v-2.737h8.359v2.737z"/><path d="M8.722 38.937h3.337c-.256 2.48-2.47 4.248-5.343 4.248-3.277 0-5.937-2.293-5.937-6.373 0-3.91 2.41-6.324 5.96-6.324 3.182 0 5.462 1.98 5.462 5.359v1.714h-5.39v-2.39h2.208c-.03-1.074-.778-1.762-2.256-1.762-1.71 0-2.588 1.28-2.588 3.452 0 2.142.95 3.403 2.612 3.403 1.033 0 1.733-.483 1.935-1.327zM22.388 38.179h-8.359v-2.737h8.359v2.737zM37.926 43.638v-3.43c2.412.262 4.131 2.538 4.131 5.493 0 3.37-2.23 6.104-6.197 6.104-3.803 0-6.15-2.478-6.15-6.129 0-3.271 1.925-5.615 5.211-5.615h1.667v5.542h-2.324v-2.27c-1.045.03-1.714.8-1.714 2.32 0 1.757 1.244 2.66 3.357 2.66 2.083 0 3.31-.976 3.31-2.685 0-1.062-.47-1.783-1.291-1.99zM37.189 29.586v8.595h-2.662v-8.595h2.662z"/><path d="M37.926 43.638v-3.43c2.412.262 4.131 2.538 4.131 5.493 0 3.37-2.23 6.104-6.197 6.104-3.803 0-6.15-2.478-6.15-6.129 0-3.271 1.925-5.615 5.211-5.615h1.667v5.542h-2.324v-2.27c-1.045.03-1.714.8-1.714 2.32 0 1.757 1.244 2.66 3.357 2.66 2.083 0 3.31-.976 3.31-2.685 0-1.062-.47-1.783-1.291-1.99zM37.189 29.586v8.595h-2.662v-8.595h2.662z"/><path d="M42.497 38.937h-3.336c.255 2.48 2.47 4.248 5.343 4.248 3.277 0 5.936-2.293 5.936-6.373 0-3.91-2.41-6.324-5.96-6.324-3.182 0-5.461 1.98-5.461 5.359v1.714h5.39v-2.39H42.2c.03-1.074.777-1.762 2.255-1.762 1.71 0 2.589 1.28 2.589 3.452 0 2.142-.95 3.403-2.612 3.403-1.033 0-1.734-.483-1.936-1.327zM28.832 38.179h8.359v-2.737h-8.359v2.737z"/><path d="M42.497 38.937h-3.336c.255 2.48 2.47 4.248 5.343 4.248 3.277 0 5.936-2.293 5.936-6.373 0-3.91-2.41-6.324-5.96-6.324-3.182 0-5.461 1.98-5.461 5.359v1.714h5.39v-2.39H42.2c.03-1.074.777-1.762 2.255-1.762 1.71 0 2.589 1.28 2.589 3.452 0 2.142-.95 3.403-2.612 3.403-1.033 0-1.734-.483-1.936-1.327zM28.832 38.179h8.359v-2.737h-8.359v2.737zM27.35 9.395h-3.32v12.438h3.32V9.395zM27.35 30.368h-3.32v12.438h3.32V30.368zM9.325 24.515v3.415H21.42v-3.415H9.325zM29.721 24.515v3.415h12.096v-3.415H29.721z"/></g></svg>