<svg width="51" height="52" viewBox="0 0 51 52" fill="none" xmlns="http://www.w3.org/2000/svg">
<g opacity="0.9">
<path d="M8.72229 13.5641H12.0586C11.8033 11.0839 9.58901 9.31579 6.71576 9.31579C3.43883 9.31579 0.779297 11.6089 0.779297 15.6883C0.779297 19.5987 3.18951 22.0126 6.73951 22.0126C9.92147 22.0126 12.2011 20.0332 12.2011 16.6538V14.94H6.81074V17.3297H9.01911C8.98943 18.4039 8.24145 19.0918 6.76325 19.0918C5.05355 19.0918 4.17496 17.8125 4.17496 15.64C4.17496 13.4977 5.12478 12.2365 6.787 12.2365C7.81995 12.2365 8.52046 12.7193 8.72229 13.5641Z" fill="#D5D5D2"/>
<path d="M22.3876 14.3219H14.0291V17.0588H22.3876V14.3219Z" fill="#D5D5D2"/>
<path d="M8.72229 13.5641H12.0586C11.8033 11.0839 9.58901 9.31579 6.71576 9.31579C3.43883 9.31579 0.779297 11.6089 0.779297 15.6883C0.779297 19.5987 3.18951 22.0126 6.73951 22.0126C9.92147 22.0126 12.2011 20.0332 12.2011 16.6538V14.94H6.81074V17.3297H9.01911C8.98943 18.4039 8.24145 19.0918 6.76325 19.0918C5.05355 19.0918 4.17496 17.8125 4.17496 15.64C4.17496 13.4977 5.12478 12.2365 6.787 12.2365C7.81995 12.2365 8.52046 12.7193 8.72229 13.5641Z" fill="#D5D5D2"/>
<path d="M22.3876 14.3219H14.0291V17.0588H22.3876V14.3219Z" fill="#D5D5D2"/>
<path d="M13.294 8.86289V12.2935C10.882 12.031 9.16247 9.75413 9.16247 6.79964C9.16247 3.43005 11.3926 0.695312 15.3598 0.695312C19.1626 0.695313 21.5101 3.17367 21.5101 6.82406C21.5101 10.096 19.5852 12.44 16.2987 12.44H14.632V6.89731H16.956V9.16811C18.0006 9.13758 18.6697 8.36844 18.6697 6.84847C18.6697 5.09043 17.4255 4.18698 15.3128 4.18698C13.2294 4.18698 12.0029 5.16368 12.0029 6.87289C12.0029 7.93504 12.4724 8.65535 13.294 8.86289Z" fill="#D5D5D2"/>
<path d="M14.0309 22.9145V14.3197H16.6926V22.9145H14.0309Z" fill="#D5D5D2"/>
<path d="M13.294 8.86289V12.2935C10.882 12.031 9.16247 9.75413 9.16247 6.79964C9.16247 3.43005 11.3926 0.695312 15.3598 0.695312C19.1626 0.695313 21.5101 3.17367 21.5101 6.82406C21.5101 10.096 19.5852 12.44 16.2987 12.44H14.632V6.89731H16.956V9.16811C18.0006 9.13758 18.6697 8.36844 18.6697 6.84847C18.6697 5.09043 17.4255 4.18698 15.3128 4.18698C13.2294 4.18698 12.0029 5.16368 12.0029 6.87289C12.0029 7.93504 12.4724 8.65535 13.294 8.86289Z" fill="#D5D5D2"/>
<path d="M14.0309 22.9145V14.3197H16.6926V22.9145H14.0309Z" fill="#D5D5D2"/>
<path d="M42.4974 13.5641H39.1611C39.4164 11.0839 41.6306 9.31579 44.504 9.31579C47.7808 9.31579 50.4404 11.6089 50.4404 15.6883C50.4404 19.5987 48.0303 22.0126 44.4801 22.0126C41.2983 22.0126 39.0187 20.0332 39.0187 16.6538V14.94H44.4089V17.3297H42.2006C42.2302 18.4039 42.9783 19.0918 44.4565 19.0918C46.1661 19.0918 47.0448 17.8125 47.0448 15.64C47.0448 13.4977 46.0949 12.2365 44.4328 12.2365C43.3998 12.2365 42.6993 12.7193 42.4974 13.5641Z" fill="#D5D5D2"/>
<path d="M28.8322 14.3219H37.1906V17.0588H28.8322V14.3219Z" fill="#D5D5D2"/>
<path d="M42.4974 13.5641H39.1611C39.4164 11.0839 41.6306 9.31579 44.504 9.31579C47.7808 9.31579 50.4404 11.6089 50.4404 15.6883C50.4404 19.5987 48.0303 22.0126 44.4801 22.0126C41.2983 22.0126 39.0187 20.0332 39.0187 16.6538V14.94H44.4089V17.3297H42.2006C42.2302 18.4039 42.9783 19.0918 44.4565 19.0918C46.1661 19.0918 47.0448 17.8125 47.0448 15.64C47.0448 13.4977 46.0949 12.2365 44.4328 12.2365C43.3998 12.2365 42.6993 12.7193 42.4974 13.5641Z" fill="#D5D5D2"/>
<path d="M28.8322 14.3219H37.1906V17.0588H28.8322V14.3219Z" fill="#D5D5D2"/>
<path d="M37.9257 8.86289V12.2935C40.3377 12.031 42.0573 9.75413 42.0573 6.79964C42.0573 3.43005 39.8272 0.695312 35.8601 0.695312C32.0571 0.695313 29.7097 3.17367 29.7097 6.82406C29.7097 10.096 31.6346 12.44 34.921 12.44H36.5878V6.89731H34.2638V9.16811C33.2191 9.13758 32.5501 8.36844 32.5501 6.84847C32.5501 5.09043 33.7943 4.18698 35.907 4.18698C37.9903 4.18698 39.2169 5.16368 39.2169 6.87289C39.2169 7.93504 38.7474 8.65535 37.9257 8.86289Z" fill="#D5D5D2"/>
<path d="M37.1888 22.9145V14.3197H34.5271V22.9145H37.1888Z" fill="#D5D5D2"/>
<path d="M37.9257 8.86289V12.2935C40.3377 12.031 42.0573 9.75413 42.0573 6.79964C42.0573 3.43005 39.8272 0.695312 35.8601 0.695312C32.0571 0.695313 29.7097 3.17367 29.7097 6.82406C29.7097 10.096 31.6346 12.44 34.921 12.44H36.5878V6.89731H34.2638V9.16811C33.2191 9.13758 32.5501 8.36844 32.5501 6.84847C32.5501 5.09043 33.7943 4.18698 35.907 4.18698C37.9903 4.18698 39.2169 5.16368 39.2169 6.87289C39.2169 7.93504 38.7474 8.65535 37.9257 8.86289Z" fill="#D5D5D2"/>
<path d="M37.1888 22.9145V14.3197H34.5271V22.9145H37.1888Z" fill="#D5D5D2"/>
<path d="M13.294 43.6377V40.2071C10.882 40.4697 9.16247 42.7465 9.16247 45.7011C9.16247 49.0705 11.3926 51.8053 15.3598 51.8053C19.1626 51.8053 21.5101 49.3269 21.5101 45.6765C21.5101 42.4047 19.5852 40.0606 16.2987 40.0606H14.632V45.6032H16.956V43.3324C18.0006 43.363 18.6696 44.1322 18.6696 45.6521C18.6697 47.4102 17.4255 48.3136 15.3128 48.3136C13.2294 48.3136 12.0029 47.337 12.0029 45.6278C12.0029 44.5657 12.4724 43.8453 13.294 43.6377Z" fill="#D5D5D2"/>
<path d="M14.0309 29.586V38.1809H16.6926V29.586H14.0309Z" fill="#D5D5D2"/>
<path d="M13.294 43.6377V40.2071C10.882 40.4697 9.16247 42.7465 9.16247 45.7011C9.16247 49.0705 11.3926 51.8053 15.3598 51.8053C19.1626 51.8053 21.5101 49.3269 21.5101 45.6765C21.5101 42.4047 19.5852 40.0606 16.2987 40.0606H14.632V45.6032H16.956V43.3324C18.0006 43.363 18.6696 44.1322 18.6696 45.6521C18.6697 47.4102 17.4255 48.3136 15.3128 48.3136C13.2294 48.3136 12.0029 47.337 12.0029 45.6278C12.0029 44.5657 12.4724 43.8453 13.294 43.6377Z" fill="#D5D5D2"/>
<path d="M14.0309 29.586V38.1809H16.6926V29.586H14.0309Z" fill="#D5D5D2"/>
<path d="M8.72229 38.9366H12.0586C11.8033 41.4168 9.58901 43.1849 6.71576 43.1849C3.43883 43.1849 0.779297 40.8917 0.779297 36.8123C0.779297 32.902 3.18951 30.4881 6.73951 30.4881C9.92147 30.4881 12.2011 32.4674 12.2011 35.8468V37.5606H6.81074V35.171H9.01911C8.98943 34.0967 8.24145 33.4089 6.76325 33.4089C5.05355 33.4089 4.17496 34.6883 4.17496 36.8606C4.17496 39.0029 5.12478 40.264 6.787 40.264C7.81995 40.264 8.52046 39.7813 8.72229 38.9366Z" fill="#D5D5D2"/>
<path d="M22.3876 38.1787H14.0291V35.4417H22.3876V38.1787Z" fill="#D5D5D2"/>
<path d="M8.72229 38.9366H12.0586C11.8033 41.4168 9.58901 43.1849 6.71576 43.1849C3.43883 43.1849 0.779297 40.8917 0.779297 36.8123C0.779297 32.902 3.18951 30.4881 6.73951 30.4881C9.92147 30.4881 12.2011 32.4674 12.2011 35.8468V37.5606H6.81074V35.171H9.01911C8.98943 34.0967 8.24145 33.4089 6.76325 33.4089C5.05355 33.4089 4.17496 34.6883 4.17496 36.8606C4.17496 39.0029 5.12478 40.264 6.787 40.264C7.81995 40.264 8.52046 39.7813 8.72229 38.9366Z" fill="#D5D5D2"/>
<path d="M22.3876 38.1787H14.0291V35.4417H22.3876V38.1787Z" fill="#D5D5D2"/>
<path d="M37.9257 43.6377V40.2071C40.3377 40.4697 42.0573 42.7465 42.0573 45.7011C42.0573 49.0705 39.8272 51.8053 35.8601 51.8053C32.0571 51.8053 29.7097 49.3269 29.7097 45.6765C29.7097 42.4047 31.6346 40.0606 34.921 40.0606H36.5878V45.6032H34.2638V43.3324C33.2191 43.363 32.5501 44.1322 32.5501 45.6521C32.5501 47.4102 33.7943 48.3136 35.907 48.3136C37.9903 48.3136 39.2169 47.337 39.2169 45.6278C39.2169 44.5657 38.7474 43.8453 37.9257 43.6377Z" fill="#D5D5D2"/>
<path d="M37.1888 29.586V38.1809H34.5271V29.586H37.1888Z" fill="#D5D5D2"/>
<path d="M37.9257 43.6377V40.2071C40.3377 40.4697 42.0573 42.7465 42.0573 45.7011C42.0573 49.0705 39.8272 51.8053 35.8601 51.8053C32.0571 51.8053 29.7097 49.3269 29.7097 45.6765C29.7097 42.4047 31.6346 40.0606 34.921 40.0606H36.5878V45.6032H34.2638V43.3324C33.2191 43.363 32.5501 44.1322 32.5501 45.6521C32.5501 47.4102 33.7943 48.3136 35.907 48.3136C37.9903 48.3136 39.2169 47.337 39.2169 45.6278C39.2169 44.5657 38.7474 43.8453 37.9257 43.6377Z" fill="#D5D5D2"/>
<path d="M37.1888 29.586V38.1809H34.5271V29.586H37.1888Z" fill="#D5D5D2"/>
<path d="M42.4974 38.9366H39.1611C39.4164 41.4168 41.6306 43.1849 44.504 43.1849C47.7808 43.1849 50.4404 40.8917 50.4404 36.8123C50.4404 32.902 48.0303 30.4881 44.4801 30.4881C41.2983 30.4881 39.0187 32.4674 39.0187 35.8468V37.5606H44.4089V35.171H42.2006C42.2302 34.0967 42.9783 33.4089 44.4565 33.4089C46.1661 33.4089 47.0448 34.6883 47.0448 36.8606C47.0448 39.0029 46.0949 40.264 44.4328 40.264C43.3998 40.264 42.6993 39.7813 42.4974 38.9366Z" fill="#D5D5D2"/>
<path d="M28.8322 38.1787H37.1906V35.4417H28.8322V38.1787Z" fill="#D5D5D2"/>
<path d="M42.4974 38.9366H39.1611C39.4164 41.4168 41.6306 43.1849 44.504 43.1849C47.7808 43.1849 50.4404 40.8917 50.4404 36.8123C50.4404 32.902 48.0303 30.4881 44.4801 30.4881C41.2983 30.4881 39.0187 32.4674 39.0187 35.8468V37.5606H44.4089V35.171H42.2006C42.2302 34.0967 42.9783 33.4089 44.4565 33.4089C46.1661 33.4089 47.0448 34.6883 47.0448 36.8606C47.0448 39.0029 46.0949 40.264 44.4328 40.264C43.3998 40.264 42.6993 39.7813 42.4974 38.9366Z" fill="#D5D5D2"/>
<path d="M28.8322 38.1787H37.1906V35.4417H28.8322V38.1787Z" fill="#D5D5D2"/>
<path d="M27.3496 9.39524H24.0293V21.8329H27.3496V9.39524Z" fill="#D5D5D2"/>
<path d="M27.3496 30.3684H24.0293V42.8061H27.3496V30.3684Z" fill="#D5D5D2"/>
<path d="M9.32465 24.5155V27.9297H21.4203V24.5155H9.32465Z" fill="#D5D5D2"/>
<path d="M29.7214 24.5155V27.9297H41.8172V24.5155H29.7214Z" fill="#D5D5D2"/>
</g>
</svg>
