<svg width="960" height="114" viewBox="0 0 960 114" fill="none" xmlns="http://www.w3.org/2000/svg">
<path fill-rule="evenodd" clip-rule="evenodd" d="M916.263 13.7432C915.051 16.4922 914.445 19.4634 914.445 22.6571C914.445 25.9315 915.051 28.9533 916.263 31.7225C917.474 34.4916 919.12 36.8969 921.2 38.9384C923.28 40.9799 925.703 42.5767 928.469 43.7289C931.236 44.881 934.174 45.4571 937.283 45.4571C940.352 45.4571 943.27 44.881 946.037 43.7289C948.803 42.5767 951.216 40.9799 953.276 38.9384C955.335 36.8969 956.971 34.4916 958.183 31.7225C959.394 28.9533 960 25.9315 960 22.6571C960 19.4634 959.394 16.4922 958.183 13.7432C956.971 10.9943 955.335 8.6092 953.276 6.58791C951.216 4.56662 948.803 2.97993 946.037 1.8278C943.27 0.675668 940.352 0.0996094 937.283 0.0996094C934.174 0.0996094 931.236 0.675668 928.469 1.8278C925.703 2.97993 923.28 4.56662 921.2 6.58791C919.12 8.6092 917.474 10.9943 916.263 13.7432ZM918.547 22.6574C918.547 25.4468 919.021 28.0239 919.97 30.3888C920.92 32.7537 922.232 34.8053 923.908 36.5436C925.584 38.2819 927.563 39.6462 929.845 40.6367C932.126 41.6271 934.6 42.1223 937.265 42.1223C939.891 42.1223 942.334 41.6271 944.595 40.6367C946.857 39.6462 948.826 38.2819 950.502 36.5436C952.178 34.8053 953.49 32.7537 954.439 30.3888C955.388 28.0239 955.863 25.4468 955.863 22.6574C955.863 19.9489 955.388 17.4223 954.439 15.0776C953.49 12.7329 952.178 10.7016 950.502 8.98346C948.826 7.26537 946.857 5.91113 944.595 4.9207C942.334 3.93027 939.891 3.43506 937.265 3.43506C934.6 3.43506 932.126 3.93027 929.845 4.9207C927.563 5.91113 925.584 7.26537 923.908 8.98346C922.232 10.7016 920.92 12.7329 919.97 15.0776C919.021 17.4223 918.547 19.9489 918.547 22.6574ZM938.663 9.49969H928.426V35.9986H932.545V24.5986H936.907L944.115 35.9986H948.538L940.965 24.2954C942.944 24.0933 944.6 23.4364 945.933 22.3247C947.266 21.213 947.932 19.4646 947.932 17.0795C947.932 14.5327 947.175 12.6327 945.66 11.3795C944.146 10.1263 941.814 9.49969 938.663 9.49969ZM936.867 21.2672H932.566V12.8385H938.018C938.705 12.8385 939.402 12.889 940.108 12.9901C940.815 13.0911 941.441 13.2831 941.986 13.5661C942.531 13.8491 942.976 14.2534 943.319 14.7789C943.662 15.3044 943.834 16.0119 943.834 16.9012C943.834 17.9523 943.642 18.7709 943.258 19.3571C942.875 19.9433 942.36 20.3778 941.714 20.6608C941.068 20.9438 940.32 21.1156 939.472 21.1762C938.624 21.2369 937.756 21.2672 936.867 21.2672Z" fill="#FBFBF8"/>
<path d="M73.2612 38.1445H104.033C101.679 15.8755 81.2553 0 54.7543 0C24.5299 0 0 20.5894 0 57.2167C0 92.327 22.2302 114 54.9733 114C84.3216 114 105.347 96.2281 105.347 65.8859V50.4981H55.6303V71.9544H75.9989C75.7252 81.5989 68.8261 87.7757 55.1923 87.7757C39.4231 87.7757 31.3194 76.289 31.3194 56.7833C31.3194 37.5485 40.0801 26.2243 55.4113 26.2243C64.9386 26.2243 71.3996 30.5589 73.2612 38.1445Z" fill="#FBFBF8"/>
<path d="M224.963 57C224.963 19.9392 200.871 0 170.427 0C139.765 0 115.892 19.9392 115.892 57C115.892 93.8441 139.765 114 170.427 114C200.871 114 224.963 94.0608 224.963 57ZM193.643 57C193.643 76.9392 185.539 87.7757 170.427 87.7757C155.315 87.7757 147.211 76.9392 147.211 57C147.211 37.0608 155.315 26.2243 170.427 26.2243C185.539 26.2243 193.643 37.0608 193.643 57Z" fill="#FBFBF8"/>
<path d="M344.468 57C344.468 19.9392 320.376 0 289.933 0C259.271 0 235.398 19.9392 235.398 57C235.398 93.8441 259.271 114 289.933 114C320.376 114 344.468 94.0608 344.468 57ZM313.149 57C313.149 76.9392 305.045 87.7757 289.933 87.7757C274.821 87.7757 266.717 76.9392 266.717 57C266.717 37.0608 274.821 26.2243 289.933 26.2243C305.045 26.2243 313.149 37.0608 313.149 57Z" fill="#FBFBF8"/>
<path d="M398.488 112.483C432.655 112.483 454.337 91.6768 454.337 57C454.337 22.3232 432.655 1.51711 398.05 1.51711H355.342V112.483H398.488ZM385.785 86.9087V27.0913H396.517C414.038 27.0913 423.675 33.8099 423.675 57C423.675 80.1901 414.038 86.9087 397.393 86.9087H385.785Z" fill="#FBFBF8"/>
<path d="M543.169 44.9478H466.075V69.5222H543.169V44.9478Z" fill="#FBFBF8"/>
<path d="M587.279 1.51711H556.836V112.483H587.279V1.51711Z" fill="#FBFBF8"/>
<path d="M644.852 112.483C679.018 112.483 700.701 91.6768 700.701 57C700.701 22.3232 679.018 1.51711 644.414 1.51711H601.705V112.483H644.852ZM632.149 86.9087V27.0913H642.88C660.402 27.0913 670.038 33.8099 670.038 57C670.038 80.1901 660.402 86.9087 643.756 86.9087H632.149Z" fill="#FBFBF8"/>
<path d="M711.232 112.483H791.83V88.2091H741.675V69.1369H787.888V44.8631H741.675V25.7909H792.049V1.51711H711.232V112.483Z" fill="#FBFBF8"/>
<path d="M832.418 112.483L838.879 91.2433H875.893L882.354 112.483H915.207L878.193 1.51711H836.58L799.566 112.483H832.418ZM845.778 68.7034L856.948 32.0761H857.824L868.994 68.7034H845.778Z" fill="#FBFBF8"/>
</svg>
