<svg width="1921" height="228" viewBox="0 0 1921 228" fill="none" xmlns="http://www.w3.org/2000/svg">
<path fill-rule="evenodd" clip-rule="evenodd" d="M1833.06 27.486C1830.64 32.9839 1829.43 38.9264 1829.43 45.3136C1829.43 51.8626 1830.64 57.9062 1833.06 63.4445C1835.49 68.9828 1838.78 73.7934 1842.94 77.8764C1847.1 81.9594 1851.94 85.153 1857.48 87.4573C1863.01 89.7615 1868.89 90.9136 1875.11 90.9136C1881.24 90.9136 1887.08 89.7615 1892.61 87.4573C1898.15 85.153 1902.97 81.9594 1907.09 77.8764C1911.21 73.7934 1914.48 68.9828 1916.9 63.4445C1919.33 57.9062 1920.54 51.8626 1920.54 45.3136C1920.54 38.9264 1919.33 32.9839 1916.9 27.486C1914.48 21.9881 1911.21 17.2179 1907.09 13.1753C1902.97 9.13275 1898.15 5.95938 1892.61 3.65511C1887.08 1.35085 1881.24 0.19873 1875.11 0.19873C1868.89 0.19873 1863.01 1.35085 1857.48 3.65511C1851.94 5.95938 1847.1 9.13275 1842.94 13.1753C1838.78 17.2179 1835.49 21.9881 1833.06 27.486ZM1837.64 45.3143C1837.64 50.8931 1838.59 56.0473 1840.48 60.7771C1842.38 65.5069 1845.01 69.61 1848.36 73.0866C1851.71 76.5633 1855.67 79.292 1860.23 81.2728C1864.8 83.2537 1869.74 84.2441 1875.07 84.2441C1880.32 84.2441 1885.21 83.2537 1889.73 81.2728C1894.26 79.292 1898.19 76.5633 1901.55 73.0866C1904.9 69.61 1907.52 65.5069 1909.42 60.7771C1911.32 56.0473 1912.27 50.8931 1912.27 45.3143C1912.27 39.8973 1911.32 34.8441 1909.42 30.1547C1907.52 25.4654 1904.9 21.4026 1901.55 17.9664C1898.19 14.5303 1894.26 11.8218 1889.73 9.84091C1885.21 7.86005 1880.32 6.86963 1875.07 6.86963C1869.74 6.86963 1864.8 7.86005 1860.23 9.84091C1855.67 11.8218 1851.71 14.5303 1848.36 17.9664C1845.01 21.4026 1842.38 25.4654 1840.48 30.1547C1838.59 34.8441 1837.64 39.8973 1837.64 45.3143ZM1877.87 18.9994H1857.39V71.9972H1865.63V49.1973H1874.35L1888.77 71.9972H1897.61L1882.47 48.5909C1886.43 48.1866 1889.74 46.8728 1892.4 44.6494C1895.07 42.426 1896.4 38.9292 1896.4 34.159C1896.4 29.0653 1894.89 25.2653 1891.86 22.759C1888.83 20.2526 1884.17 18.9994 1877.87 18.9994ZM1874.27 42.5344H1865.67V25.6769H1876.58C1877.95 25.6769 1879.34 25.778 1880.76 25.9801C1882.17 26.1822 1883.42 26.5663 1884.51 27.1322C1885.6 27.6982 1886.49 28.5067 1887.18 29.5578C1887.86 30.6088 1888.21 32.0237 1888.21 33.8025C1888.21 35.9046 1887.82 37.5418 1887.06 38.7142C1886.29 39.8865 1885.26 40.7556 1883.97 41.3216C1882.67 41.8876 1881.18 42.2312 1879.48 42.3525C1877.79 42.4737 1876.05 42.5344 1874.27 42.5344Z" fill="#242424"/>
<path d="M147.062 76.289H208.605C203.896 31.751 163.05 0 110.048 0C49.5989 0 0.539062 41.1787 0.539062 114.433C0.539062 184.654 44.9995 228 110.486 228C169.182 228 211.234 192.456 211.234 131.772V100.996H111.8V143.909H152.537C151.989 163.198 138.191 175.551 110.924 175.551C79.3852 175.551 63.178 152.578 63.178 113.567C63.178 75.097 80.6993 52.4487 111.362 52.4487C130.416 52.4487 143.338 61.1179 147.062 76.289Z" fill="#242424"/>
<path d="M450.464 114C450.464 39.8783 402.28 0 341.394 0C280.069 0 232.323 39.8783 232.323 114C232.323 187.688 280.069 228 341.394 228C402.28 228 450.464 188.122 450.464 114ZM387.825 114C387.825 153.878 371.618 175.551 341.394 175.551C311.169 175.551 294.962 153.878 294.962 114C294.962 74.1217 311.169 52.4487 341.394 52.4487C371.618 52.4487 387.825 74.1217 387.825 114Z" fill="#242424"/>
<path d="M689.476 114C689.476 39.8783 641.292 0 580.405 0C519.08 0 471.335 39.8783 471.335 114C471.335 187.688 519.08 228 580.405 228C641.292 228 689.476 188.122 689.476 114ZM626.837 114C626.837 153.878 610.629 175.551 580.405 175.551C550.181 175.551 533.973 153.878 533.973 114C533.973 74.1217 550.181 52.4487 580.405 52.4487C610.629 52.4487 626.837 74.1217 626.837 114Z" fill="#242424"/>
<path d="M797.515 224.966C865.848 224.966 909.214 183.354 909.214 114C909.214 44.6464 865.848 3.03422 796.639 3.03422H711.222V224.966H797.515ZM772.109 173.817V54.1825H793.573C828.615 54.1825 847.889 67.6198 847.889 114C847.889 160.38 828.615 173.817 795.325 173.817H772.109Z" fill="#242424"/>
<path d="M1086.88 89.8957H932.689V139.044H1086.88V89.8957Z" fill="#242424"/>
<path d="M1175.1 3.03422H1114.21V224.966H1175.1V3.03422Z" fill="#242424"/>
<path d="M1290.24 224.966C1358.58 224.966 1401.94 183.354 1401.94 114C1401.94 44.6464 1358.58 3.03422 1289.37 3.03422H1203.95V224.966H1290.24ZM1264.84 173.817V54.1825H1286.3C1321.34 54.1825 1340.62 67.6198 1340.62 114C1340.62 160.38 1321.34 173.817 1288.05 173.817H1264.84Z" fill="#242424"/>
<path d="M1423 224.966H1584.2V176.418H1483.89V138.274H1576.31V89.7262H1483.89V51.5818H1584.64V3.03422H1423V224.966Z" fill="#242424"/>
<path d="M1665.38 224.966L1678.3 182.487H1752.33L1765.25 224.966H1830.95L1756.92 3.03422H1673.7L1599.67 224.966H1665.38ZM1692.1 137.407L1714.44 64.1521H1716.19L1738.53 137.407H1692.1Z" fill="#242424"/>
</svg>
